<svg xmlns="http://www.w3.org/2000/svg" viewBox="0 0 900 520"><defs><linearGradient id="sky" x2="0" y2="1"><stop stop-color="#b7c0c4"/><stop offset="1" stop-color="#d7d0c6"/></linearGradient><linearGradient id="body" x2="0" y2="1"><stop stop-color="#6b6864"/><stop offset="1" stop-color="#4b4e52"/></linearGradient><filter id="shadow"><feGaussianBlur stdDeviation="12"/></filter></defs><rect width="900" height="520" fill="url(#sky)"/><rect x="0" y="120" width="900" height="205" fill="#918a82" opacity=".55"/><rect x="35" y="155" width="160" height="105" fill="#686661" opacity=".65"/><rect x="225" y="145" width="180" height="115" fill="#706d68" opacity=".5"/><rect y="320" width="900" height="200" fill="#4b4a47"/><path d="M0 340 Q220 315 450 345 T900 340" stroke="#c7b99f" stroke-width="5" opacity=".55" fill="none"/><ellipse cx="450" cy="320" rx="340" ry="35" fill="#111" opacity=".28" filter="url(#shadow)"/><path d="M170 275 L205 170 Q220 145 260 145 L660 145 Q700 145 720 180 L770 275 Z" fill="url(#body)" stroke="#25272a" stroke-width="4"/><g fill="#b9d2df" opacity=".82"><path d="M260 160 L285 225 L470 225 L470 160 Z"/><path d="M490 160 L490 225 L650 225 L625 170 Q615 160 595 160 Z"/></g><path d="M465 165 L465 275" stroke="#282b2e" stroke-width="4" opacity=".65"/><rect x="155" y="270" width="590" height="20" rx="8" fill="#292d31"/><rect x="185" y="275" width="50" height="12" rx="4" fill="#d9a24e" opacity=".8"/><rect x="690" y="275" width="35" height="12" rx="4" fill="#d54b42" opacity=".8"/><circle cx="280" cy="285" r="54" fill="#1e2227"/><circle cx="280" cy="285" r="24" fill="#b8bdc2"/><circle cx="280" cy="285" r="9" fill="#666"/><circle cx="665" cy="285" r="54" fill="#1e2227"/><circle cx="665" cy="285" r="24" fill="#b8bdc2"/><circle cx="665" cy="285" r="9" fill="#666"/><path d="M530 245 l55 8 M555 257 l30 5 M245 235 l38 -6" stroke="#8b7b6c" stroke-width="6" opacity=".55"/><circle cx="705" cy="252" r="7" fill="#b9a68e" opacity=".7"/><g fill="#c6b092" opacity=".7"><circle cx="180" cy="380" r="5"/><circle cx="225" cy="400" r="4"/><circle cx="730" cy="392" r="5"/><circle cx="690" cy="420" r="3"/><circle cx="760" cy="375" r="4"/></g><text x="38" y="48" font-family="Arial" font-size="28" font-weight="700" fill="#222">USED • Kia Seltos</text><text x="38" y="78" font-family="Arial" font-size="17" fill="#333">Second-hand marketplace demo image • visible wear &amp; road setting</text></svg>